<?xml version="1.0" standalone="no"?>
<!DOCTYPE svg PUBLIC "-//W3C//DTD SVG 20010904//EN"
 "http://www.w3.org/TR/2001/REC-SVG-20010904/DTD/svg10.dtd">
<svg version="1.0" xmlns="http://www.w3.org/2000/svg"
 width="2480.000000pt" height="1748.000000pt" viewBox="0 0 2480.000000 1748.000000"
 preserveAspectRatio="xMidYMid meet">

<g transform="translate(0.000000,1748.000000) scale(0.100000,-0.100000)"
fill="#000000" stroke="none">
<path d="M0 8740 l0 -8740 12400 0 12400 0 0 8740 0 8740 -12400 0 -12400 0 0
-8740z m6985 5700 c352 -6 666 -10 699 -10 l58 0 192 -188 c248 -243 324 -318
1716 -1667 1358 -1317 1777 -1724 2016 -1957 95 -93 179 -168 188 -168 9 0
285 260 614 578 328 317 1043 1007 1587 1532 1037 1000 1521 1467 1692 1633
l103 100 257 -7 c142 -4 517 -11 833 -17 316 -5 578 -13 583 -18 4 -4 -406
-403 -910 -887 -505 -483 -1521 -1457 -2258 -2164 -737 -707 -1590 -1525
-1895 -1818 -305 -292 -561 -532 -569 -532 -7 0 -180 163 -385 363 -347 338
-640 625 -2686 2617 -2530 2464 -2681 2613 -2668 2621 7 5 53 6 103 3 49 -2
378 -9 730 -14z m-145 -791 c250 -245 784 -766 1185 -1159 402 -393 1153
-1129 1670 -1635 517 -506 1149 -1125 1405 -1375 256 -251 514 -502 573 -560
66 -64 107 -110 105 -120 -2 -10 -122 -129 -268 -266 -146 -138 -762 -718
-1370 -1289 -1313 -1235 -2315 -2178 -3368 -3168 -424 -400 -777 -727 -784
-727 -8 0 -10 170 -4 688 4 378 11 1110 16 1627 6 517 14 1388 20 1935 5 547
14 1426 20 1954 24 2320 31 2957 40 3849 5 521 12 953 16 958 3 6 69 -51 148
-128 77 -76 346 -339 596 -584z m10660 184 c0 -164 4 -766 10 -1338 5 -572 14
-1672 20 -2445 6 -773 15 -1911 20 -2530 23 -2680 33 -4241 27 -4247 -9 -9
-45 26 -752 722 -341 335 -895 880 -1230 1210 -753 739 -1098 1079 -1510 1486
-176 173 -724 713 -1218 1199 -494 486 -897 888 -895 895 3 13 75 83 1828
1780 602 583 1383 1339 1735 1680 1684 1633 1946 1885 1955 1885 6 0 10 -109
10 -297z"/>
</g>
</svg>
