<?xml version="1.0" standalone="yes"?>
<svg xmlns="http://www.w3.org/2000/svg" width="2480" height="1748">
<path style="fill:#010101; stroke:none;" d="M0 0L0 1748L2480 1748L2480 0L0 0z"/>
<path style="fill:#01ff89; stroke:none;" d="M1575 321L1486 407.015L1280.99 605.089L1210.17 673.576L1193 689.996L1185 695.23L1176.04 688.184L1155 667.999L1079 594.015L785 309C789.692 305.92 786.577 301.67 781.985 300.634C774.102 298.857 765.043 300 757 300C720.92 300 685.058 298 649 298C638.667 298 628.333 297.946 618 298.001C614.849 298.017 608.987 297.67 608.466 302.015C608.041 305.563 612.96 308.286 615.17 310.326C622.003 316.634 628.425 323.425 635 330C662.335 357.335 690.661 383.661 718 411C831.326 524.326 948.666 633.666 1062 747C1093.33 778.329 1125.59 808.734 1157 839.999C1164.19 847.153 1171.8 853.859 1179 860.999C1181.83 863.802 1185.45 868.484 1189.99 867.377C1194.17 866.357 1197.39 861.658 1200.43 858.883C1208.95 851.106 1216.98 842.857 1225.33 834.899C1254.47 807.138 1283.04 778.783 1312.17 751C1418.22 649.843 1521.76 545.807 1629 445.911C1662.54 414.664 1695.59 382.41 1728 350C1736.63 341.366 1744.66 334.201 1754.94 327.865C1757.38 326.364 1759.69 323.331 1758.38 320.318C1756.83 316.771 1750.05 318 1747 318L1713 318C1677.75 317.998 1642.42 315 1607 315C1598.26 315 1576.51 310.017 1569.34 315.027C1564.01 318.746 1572.36 320.914 1575 321z"/>
<path style="fill:#01dbff; stroke:none;" d="M607.144 305.161C602.669 305.885 604 313.88 604 317L604 354C604 406.741 602 459.223 602 512C602 735.632 595 959.356 595 1183C595 1243.37 597.038 1304.73 592.911 1365C591.952 1379 591.999 1392.94 592 1407C592 1411.02 590.895 1419.93 597.043 1420.01C601.061 1420.06 604.382 1416.01 607.089 1413.56C614.496 1406.86 621.78 1399.94 628.996 1393.04C658.137 1365.15 688.054 1338.11 716.985 1310.04C828.249 1202.08 942.564 1096.76 1056 991.089C1088.77 960.565 1121.8 930.197 1153.99 899.036C1161.63 891.636 1169.38 884.331 1177.17 877.08C1180.04 874.407 1184.37 871.525 1183.62 867C1182.21 858.349 1167.09 848.856 1161 842.961C1140.85 823.468 1120.82 803.817 1101 784C1021.69 704.692 940.649 626.909 859.996 548.961C796.636 487.726 733.299 426.299 671 364C655.829 348.829 640.182 334.181 625 319C621.393 315.393 613.097 304.199 607.144 305.161z"/>
<path style="fill:#a1ea6f; stroke:none;" d="M1254 808C1272.32 795.097 1287.95 775.669 1304 760.015C1330.82 733.849 1358.17 708.187 1385 682.015C1460.76 608.106 1538.23 535.895 1614 461.985C1644.54 432.197 1675.84 403.16 1706 373C1719.31 359.694 1736.35 336.914 1754 330C1744.51 326.755 1728.04 348.962 1722 355C1692.84 384.161 1662.2 411.851 1633 441C1547.85 526.018 1459.98 608.791 1373 691.961C1345.23 718.518 1317.32 744.955 1290 771.996C1278.17 783.706 1263.61 794.353 1254 808z"/>
<path style="fill:#ffbb01; stroke:none;" d="M1753 330C1735.7 336.776 1719.04 358.965 1706 372C1676.15 401.834 1644.91 430.23 1615 459.999C1518.27 556.262 1416.51 647.494 1320 744C1288.77 775.227 1257.07 807.21 1223.96 836.439C1215.64 843.784 1208.3 852.164 1200.04 859.572C1196.84 862.436 1191.79 866.105 1192.29 870.964C1192.72 875.172 1197.23 878.256 1200 881.004C1206.54 887.502 1213.49 893.692 1219.88 900.31C1248.2 929.606 1277.85 957.8 1307.09 986.173C1415.77 1091.64 1523.91 1197.91 1631 1305C1662.71 1336.71 1694.45 1368.66 1727.07 1399.42C1734.88 1406.78 1742.3 1414.52 1750 1421.98C1752.39 1424.3 1756.04 1428.45 1759.85 1427.29C1764.63 1425.83 1763 1416.72 1763 1413L1763 1367C1763 1302.08 1761 1236.92 1761 1172C1761 979.013 1758.3 785.709 1756 593C1755.28 532.333 1756.5 471.595 1755.01 411C1754.57 392.672 1754.46 374.282 1754.01 356C1753.81 347.603 1755.39 338.094 1753 330z"/>
<path style="fill:#a1ea6f; stroke:none;" d="M1252 808L1253 809L1252 808M1251 809L1252 810L1251 809M1250 810L1251 811L1250 810M1249 811L1250 812L1249 811M1248 812L1249 813L1248 812M1247 813L1248 814L1247 813M1246 814L1247 815L1246 814M1245 815L1246 816L1245 815M1244 816L1245 817L1244 816M1243 817L1244 818L1243 817M1242 818L1243 819L1242 818M1241 819L1242 820L1241 819M1240 820L1241 821L1240 820M1239 821L1240 822L1239 821M1238 822L1239 823L1238 822M1237 823L1238 824L1237 823M1236 824L1237 825L1236 824M1235 825L1236 826L1235 825M1234 826L1235 827L1234 826M1233 827L1234 828L1233 827M1232 828L1233 829L1232 828M1231 829L1232 830L1231 829M1230 830L1231 831L1230 830M1228.67 831.333L1229.33 831.667L1228.67 831.333M1225 836L1228 833L1225 836M1223 836L1224 837L1223 836M1222 837L1223 838L1222 837M1221 838L1222 839L1221 838M1220 839L1221 840L1220 839M1219 840L1220 841L1219 840M1218 841L1219 842L1218 841M1217 842L1218 843L1217 842M1216 843L1217 844L1216 843M1215 844L1216 845L1215 844M1214 845L1215 846L1214 845M1213 846L1214 847L1213 846M1212 847L1213 848L1212 847M1211 848L1212 849L1211 848M1210 849L1211 850L1210 849M1209 850L1210 851L1209 850M1208 851L1209 852L1208 851M1207 852L1208 853L1207 852M1206 853L1207 854L1206 853M1205 854L1206 855L1205 854M1204 855L1205 856L1204 855M1203 856L1204 857L1203 856M1200 860L1203 857L1200 860M1198 860L1199 861L1198 860M1197 861L1198 862L1197 861M1196 862L1197 863L1196 862M1195.33 863.667L1195.67 864.333L1195.33 863.667M1193 865L1194 866L1193 865M1192 866L1193 867L1192 866M1191 867L1192 868L1191 867z"/>
</svg>
